<svg version="1.1" xmlns="http://www.w3.org/2000/svg" xmlns:xlink="http://www.w3.org/1999/xlink" width="20" height="21" viewBox="0,0,243.79688,256"><defs><clipPath id="clip-1"><rect x="0.06471" y="0.77112" width="19.4245" height="19.4472" id="clip0_2_373" fill="none"></rect></clipPath></defs><g fill="none" fill-rule="nonzero" stroke="none" stroke-width="1" stroke-linecap="butt" stroke-linejoin="miter" stroke-miterlimit="10" stroke-dasharray="" stroke-dashoffset="0" font-family="none" font-weight="none" font-size="none" text-anchor="none" style="mix-blend-mode: normal"><g transform="translate(2.71266,0.06439) scale(12.19048,12.19048)"><g clip-path="url(#clip-1)"><path d="M18.6798,16.1669h-1.6187v-1.6206c0,-0.2149 -0.0853,-0.421 -0.2371,-0.573c-0.1517,-0.152 -0.3576,-0.2373 -0.5723,-0.2373c-0.2146,0 -0.4205,0.0853 -0.5723,0.2373c-0.1517,0.152 -0.237,0.3581 -0.237,0.573v1.6206h-1.6187c-0.2147,0 -0.4205,0.0853 -0.5723,0.2373c-0.1518,0.152 -0.2371,0.3581 -0.2371,0.573c0,0.2149 0.0853,0.421 0.2371,0.5729c0.1518,0.152 0.3576,0.2374 0.5723,0.2374h1.6187v1.6206c0,0.2149 0.0853,0.421 0.237,0.5729c0.1518,0.152 0.3577,0.2374 0.5723,0.2374c0.2147,0 0.4206,-0.0854 0.5723,-0.2374c0.1518,-0.1519 0.2371,-0.358 0.2371,-0.5729v-1.6206h1.6187c0.2147,0 0.4205,-0.0854 0.5723,-0.2374c0.1518,-0.1519 0.2371,-0.358 0.2371,-0.5729c0,-0.2149 -0.0853,-0.421 -0.2371,-0.573c-0.1518,-0.152 -0.3576,-0.2373 -0.5723,-0.2373z" fill="#ffffff"></path><path d="M17.0611,5.63293h-2.428c0,-1.28943 -0.5117,-2.52605 -1.4224,-3.43782c-0.9107,-0.91177 -2.1458,-1.42399 -3.43376,-1.42399c-1.28792,0 -2.52309,0.51222 -3.43379,1.42399c-0.9107,0.91177 -1.42233,2.14839 -1.42233,3.43782h-2.42805c-0.64396,0 -1.26155,0.25611 -1.7169,0.71199c-0.45535,0.45589 -0.71116,1.0742 -0.71116,1.71891v8.10297c0.00129,1.0742 0.42805,2.1039 1.18669,2.8635c0.75863,0.7595 1.7872,1.1868 2.86007,1.1881h7.28413c0.2147,0 0.4206,-0.0854 0.5723,-0.2374c0.1518,-0.1519 0.2371,-0.358 0.2371,-0.5729c0,-0.215 -0.0853,-0.4211 -0.2371,-0.573c-0.1517,-0.152 -0.3576,-0.2373 -0.5723,-0.2373h-7.28413c-0.64396,0 -1.26155,-0.2562 -1.71689,-0.712c-0.45535,-0.4559 -0.71117,-1.0742 -0.71117,-1.719v-8.10297c0,-0.2149 0.08527,-0.42101 0.23706,-0.57297c0.15178,-0.15196 0.35764,-0.23733 0.5723,-0.23733h2.42805v1.6206c0,0.21491 0.08528,0.42101 0.23706,0.57297c0.15178,0.15196 0.35764,0.23734 0.5723,0.23734c0.21465,0 0.42051,-0.08538 0.5723,-0.23734c0.15178,-0.15196 0.23705,-0.35806 0.23705,-0.57297v-1.6206h6.47477v1.6206c0,0.21491 0.0853,0.42101 0.2371,0.57297c0.1518,0.15196 0.3576,0.23734 0.5723,0.23734c0.2147,0 0.4205,-0.08538 0.5723,-0.23734c0.1518,-0.15196 0.2371,-0.35806 0.2371,-0.57297v-1.6206h2.428c0.2147,0 0.4205,0.08537 0.5723,0.23733c0.1518,0.15196 0.2371,0.35807 0.2371,0.57297v4.05147c0,0.2149 0.0852,0.421 0.237,0.573c0.1518,0.152 0.3577,0.2373 0.5723,0.2373c0.2147,0 0.4205,-0.0853 0.5723,-0.2373c0.1518,-0.152 0.2371,-0.3581 0.2371,-0.573v-4.05147c0,-0.64471 -0.2558,-1.26302 -0.7112,-1.71891c-0.4553,-0.45588 -1.0729,-0.71199 -1.7169,-0.71199zM6.53953,5.63293c0,-0.85962 0.34108,-1.68404 0.94821,-2.29188c0.60714,-0.60785 1.43059,-0.94933 2.2892,-0.94933c0.85866,0 1.68206,0.34148 2.28916,0.94933c0.6072,0.60784 0.9482,1.43226 0.9482,2.29188z" fill="#ffffff"></path></g></g></g></svg>