<svg version="1.1" xmlns="http://www.w3.org/2000/svg" xmlns:xlink="http://www.w3.org/1999/xlink" width="20" height="16" viewBox="0,0,256,204.79688"><g fill="#ffffff" fill-rule="nonzero" stroke="none" stroke-width="1" stroke-linecap="butt" stroke-linejoin="miter" stroke-miterlimit="10" stroke-dasharray="" stroke-dashoffset="0" font-family="none" font-weight="none" font-size="none" text-anchor="none" style="mix-blend-mode: normal"><g transform="translate(2.8548,2.73103) scale(12.8,12.8)"><path d="M18.8992,5.69511c-1.2553,-2.04682 -4.1107,-5.48088 -9.12223,-5.48088c-5.01151,0 -7.86691,3.43406 -9.12222,5.48088c-0.38806,0.6284 -0.59362,1.35259 -0.59362,2.09139c0,0.7388 0.20555,1.463 0.59362,2.09139c1.25531,2.04681 4.11071,5.48091 9.12222,5.48091c5.01153,0 7.86693,-3.4341 9.12223,-5.48091c0.388,-0.62839 0.5936,-1.35259 0.5936,-2.09139c0,-0.7388 -0.2056,-1.46299 -0.5936,-2.09139zM17.5192,9.02951c-1.078,1.75509 -3.5182,4.70869 -7.74223,4.70869c-4.22401,0 -6.66421,-2.9536 -7.74227,-4.70869c-0.23056,-0.37352 -0.35267,-0.80393 -0.35267,-1.24301c0,-0.43908 0.12211,-0.86949 0.35267,-1.243c1.07806,-1.75511 3.51826,-4.70866 7.74227,-4.70866c4.22403,0 6.66423,2.9503 7.74223,4.70866c0.2306,0.37351 0.3527,0.80392 0.3527,1.243c0,0.43908 -0.1221,0.86949 -0.3527,1.24301z"></path><path d="M9.77692,3.73499c-0.80037,0 -1.58277,0.23761 -2.24826,0.6828c-0.66549,0.44518 -1.18417,1.07794 -1.49046,1.81826c-0.30629,0.74031 -0.38643,1.55494 -0.23028,2.34085c0.15614,0.78592 0.54156,1.5078 1.10751,2.0744c0.56595,0.5667 1.28701,0.9525 2.07201,1.1089c0.78499,0.1563 1.59866,0.076 2.33806,-0.2306c0.7395,-0.3067 1.3715,-0.8259 1.8162,-1.4922c0.4446,-0.66628 0.682,-1.44959 0.682,-2.25091c-0.0013,-1.07413 -0.4281,-2.1039 -1.1867,-2.86342c-0.7586,-0.75953 -1.7872,-1.1868 -2.86008,-1.18808zM9.77692,10.2174c-0.48022,0 -0.94966,-0.1426 -1.34896,-0.40968c-0.39929,-0.26711 -0.7105,-0.64677 -0.89427,-1.09096c-0.18378,-0.44419 -0.23186,-0.93296 -0.13817,-1.40451c0.09368,-0.47155 0.32493,-0.9047 0.6645,-1.24467c0.33957,-0.33996 0.77221,-0.57149 1.24321,-0.66528c0.471,-0.0938 0.95917,-0.04566 1.40287,0.13833c0.4437,0.18399 0.8229,0.49556 1.0897,0.89532c0.2668,0.39976 0.4092,0.86976 0.4092,1.35054c0,0.64472 -0.2558,1.26303 -0.7112,1.71891c-0.4553,0.45589 -1.0729,0.712 -1.71688,0.712z"></path></g></g></svg>