<svg width="27" height="27" viewBox="0 0 27 27" fill="none" xmlns="http://www.w3.org/2000/svg">
<path d="M7.86464 7.43716C8.62512 6.61682 9.50913 6.0002 10.4509 5.57612C13.5807 4.16685 17.3897 4.8941 19.7576 7.59885L21.3933 6.1976C21.4842 6.11975 21.63 6.19177 21.6387 6.31376L22.0455 11.8017C22.0505 11.8931 21.9662 11.9654 21.88 11.9435L16.5301 10.6959C16.4082 10.6652 16.3625 10.513 16.4534 10.4352L18.0858 9.03672C16.5209 7.26495 14.1035 6.67941 11.9755 7.35992C11.171 7.61574 10.4104 8.04785 9.75614 8.67023C8.85664 9.52525 8.29282 10.6217 8.06947 11.7811C7.95173 12.3998 7.34542 12.7954 6.73261 12.6506C6.14944 12.5142 5.78531 11.9369 5.9007 11.3484C6.17247 9.91678 6.82963 8.55459 7.86464 7.43716V7.43716ZM19.3205 14.4739C19.1032 15.6337 18.5361 16.733 17.6338 17.5848C16.9764 18.2099 16.213 18.6388 15.4145 18.8951C13.2865 19.5756 10.8658 18.9928 9.3042 17.2183L10.9366 15.8198C11.0275 15.742 10.979 15.5866 10.8599 15.5591L5.5072 14.3083C5.4178 14.2892 5.33342 14.3615 5.34169 14.4501L5.7457 19.9348C5.75718 20.06 5.90028 20.1288 5.99115 20.0509L7.62681 18.6497C9.99148 21.3572 13.8033 22.0877 16.9335 20.6724C17.8753 20.2483 18.7565 19.6285 19.5198 18.8114C20.5576 17.6972 21.2147 16.335 21.4865 14.9034C21.5991 14.3116 21.2378 13.7375 20.6546 13.6011C20.0446 13.4596 19.4382 13.8552 19.3205 14.4739V14.4739Z" fill="#757575" stroke="white" stroke-width="0.3"/>
</svg>
