<svg version="1.1" xmlns="http://www.w3.org/2000/svg" xmlns:xlink="http://www.w3.org/1999/xlink" width="21" height="20" viewBox="0,0,256,243.79688"><g fill="#ffffff" fill-rule="nonzero" stroke="none" stroke-width="1" stroke-linecap="butt" stroke-linejoin="miter" stroke-miterlimit="10" stroke-dasharray="" stroke-dashoffset="0" font-family="none" font-weight="none" font-size="none" text-anchor="none" style="mix-blend-mode: normal"><g transform="translate(-3.35642,-0.61992) scale(12.19048,12.19048)"><path d="M10.777,19.1556l-8.24086,-8.2505c-1.09293,-1.09406 -1.70699,-2.57801 -1.70708,-4.12537c-0.00009,-1.54736 0.61379,-3.03137 1.70659,-4.12559c1.0928,-1.09421 2.57501,-1.70898 4.12056,-1.70907c1.54554,-0.00009 3.02783,0.61451 4.12079,1.70859c1.0934,-1.09285 2.5753,-1.70664 4.1204,-1.70664c1.545,0 3.0269,0.61379 4.1204,1.70664v0c1.0911,1.09499 1.7038,2.57854 1.7038,4.12524c0,1.5467 -0.6127,3.03026 -1.7038,4.1252zM6.65607,2.88994c-0.76844,-0.00003 -1.51963,0.22811 -2.15855,0.65554c-0.63892,0.42744 -1.13688,1.03498 -1.43089,1.74578c-0.29401,0.7108 -0.37086,1.49293 -0.22084,2.24747c0.15002,0.75453 0.52018,1.44758 1.06366,1.99147l6.86755,6.8756l6.8675,-6.8756c0.3944,-0.38612 0.7022,-0.85191 0.9029,-1.36639c0.2006,-0.51448 0.2895,-1.06584 0.2608,-1.6174c-0.0288,-0.55155 -0.1745,-1.09065 -0.4276,-1.58142c-0.253,-0.49077 -0.6076,-0.92196 -1.0401,-1.26486c-0.4324,-0.34291 -0.9329,-0.58967 -1.468,-0.72387c-0.5351,-0.1342 -1.0927,-0.15276 -1.6355,-0.05444c-0.5428,0.09832 -1.0586,0.31126 -1.5128,0.62465c-0.4543,0.31339 -0.8366,0.72005 -1.1217,1.1929l-0.8255,1.33408l-0.82557,-1.33408c-0.34079,-0.5688 -0.82418,-1.03852 -1.40222,-1.36259c-0.57805,-0.32408 -1.23067,-0.49123 -1.89314,-0.48489z"></path></g></g></svg>